<svg width="29" height="28" viewBox="0 0 29 28" fill="none" xmlns="http://www.w3.org/2000/svg">
<g clip-path="url(#clip0_484_126)">
<path d="M14.3333 3.5V17.5" stroke="#0A9682" stroke-width="2" stroke-linecap="round" stroke-linejoin="round"/>
<path d="M18.9999 12.833L14.3333 17.4997" stroke="#0A9682" stroke-width="2" stroke-linecap="round" stroke-linejoin="round"/>
<path d="M9.6665 12.833L14.3332 17.4997" stroke="#0A9682" stroke-width="2" stroke-linecap="round" stroke-linejoin="round"/>
<path d="M13.1665 23.3337C13.1665 23.6431 13.2894 23.9398 13.5082 24.1586C13.727 24.3774 14.0238 24.5003 14.3332 24.5003C14.6426 24.5003 14.9393 24.3774 15.1581 24.1586C15.3769 23.9398 15.4998 23.6431 15.4998 23.3337C15.4998 23.0242 15.3769 22.7275 15.1581 22.5087C14.9393 22.2899 14.6426 22.167 14.3332 22.167C14.0238 22.167 13.727 22.2899 13.5082 22.5087C13.2894 22.7275 13.1665 23.0242 13.1665 23.3337Z" stroke="#0A9682" stroke-width="2" stroke-linecap="round" stroke-linejoin="round"/>
</g>
<defs>
<clipPath id="clip0_484_126">
<rect width="28" height="28" fill="white" transform="translate(0.333252)"/>
</clipPath>
</defs>
</svg>
