<svg width="28" height="28" viewBox="0 0 28 28" fill="none" xmlns="http://www.w3.org/2000/svg">
<g clip-path="url(#clip0_484_152)">
<path d="M23.3334 12.8338C23.0481 10.7807 22.0957 8.87841 20.6228 7.41988C19.15 5.96136 17.2385 5.02754 15.1827 4.76228C13.1269 4.49702 11.041 4.91503 9.24615 5.95192C7.45133 6.98882 6.04721 8.58706 5.25008 10.5005M4.66675 5.8338V10.5005H9.33342" stroke="#0A9682" stroke-width="2" stroke-linecap="round" stroke-linejoin="round"/>
<path d="M4.66675 15.167C4.95207 17.2201 5.9045 19.1224 7.37734 20.5809C8.85017 22.0394 10.7617 22.9733 12.8175 23.2385C14.8732 23.5038 16.9592 23.0858 18.754 22.0489C20.5488 21.012 21.953 19.4137 22.7501 17.5003M23.3334 22.167V17.5003H18.6667" stroke="#0A9682" stroke-width="2" stroke-linecap="round" stroke-linejoin="round"/>
<path d="M12.8333 13.9997C12.8333 14.3091 12.9562 14.6058 13.175 14.8246C13.3938 15.0434 13.6905 15.1663 13.9999 15.1663C14.3093 15.1663 14.6061 15.0434 14.8249 14.8246C15.0437 14.6058 15.1666 14.3091 15.1666 13.9997C15.1666 13.6903 15.0437 13.3935 14.8249 13.1747C14.6061 12.9559 14.3093 12.833 13.9999 12.833C13.6905 12.833 13.3938 12.9559 13.175 13.1747C12.9562 13.3935 12.8333 13.6903 12.8333 13.9997Z" stroke="#0A9682" stroke-width="2" stroke-linecap="round" stroke-linejoin="round"/>
</g>
<defs>
<clipPath id="clip0_484_152">
<rect width="28" height="28" fill="white"/>
</clipPath>
</defs>
</svg>
