<svg width="29" height="28" viewBox="0 0 29 28" fill="none" xmlns="http://www.w3.org/2000/svg">
<g clip-path="url(#clip0_484_139)">
<path d="M14.6665 3.5V17.5" stroke="#0A9682" stroke-width="2" stroke-linecap="round" stroke-linejoin="round"/>
<path d="M19.3332 8.16667L14.6665 3.5" stroke="#0A9682" stroke-width="2" stroke-linecap="round" stroke-linejoin="round"/>
<path d="M9.99976 8.16667L14.6664 3.5" stroke="#0A9682" stroke-width="2" stroke-linecap="round" stroke-linejoin="round"/>
<path d="M13.4998 23.3337C13.4998 23.6431 13.6227 23.9398 13.8415 24.1586C14.0603 24.3774 14.357 24.5003 14.6664 24.5003C14.9758 24.5003 15.2726 24.3774 15.4914 24.1586C15.7102 23.9398 15.8331 23.6431 15.8331 23.3337C15.8331 23.0242 15.7102 22.7275 15.4914 22.5087C15.2726 22.2899 14.9758 22.167 14.6664 22.167C14.357 22.167 14.0603 22.2899 13.8415 22.5087C13.6227 22.7275 13.4998 23.0242 13.4998 23.3337Z" stroke="#0A9682" stroke-width="2" stroke-linecap="round" stroke-linejoin="round"/>
</g>
<defs>
<clipPath id="clip0_484_139">
<rect width="28" height="28" fill="white" transform="translate(0.666504)"/>
</clipPath>
</defs>
</svg>
